<svg xmlns="http://www.w3.org/2000/svg" viewBox="0 0 100 62.36"><defs><style>.cls-1{fill:#f77a52;}.cls-2{fill:#fff;}</style></defs><title>MadeWithLove</title><g id="Layer_2" data-name="Layer 2"><g id="Layer_1-2" data-name="Layer 1"><path class="cls-1" d="M76.726,53.59v-.041a5.758,5.758,0,0,1,5.942-5.778A5.241,5.241,0,0,1,87.4,50.25l-2.643,1.967a2.391,2.391,0,0,0-2.069-1.168,2.3,2.3,0,0,0-2.172,2.459v.041a2.3,2.3,0,0,0,2.213,2.52,2.654,2.654,0,0,0,2.13-1.147l2.6,1.885a5.5,5.5,0,0,1-4.938,2.541A5.72,5.72,0,0,1,76.726,53.59Z"/><path class="cls-1" d="M87.747,53.59v-.041A6.137,6.137,0,0,1,100,53.508v.041a6.137,6.137,0,0,1-12.253.041Zm8.462,0v-.041a2.4,2.4,0,0,0-2.356-2.5,2.321,2.321,0,0,0-2.315,2.459v.041a2.4,2.4,0,0,0,2.356,2.5A2.321,2.321,0,0,0,96.209,53.59Z"/><path class="cls-2" d="M0,39.052,1.455,36.7a7.2,7.2,0,0,0,3.811,1.27c.676,0,.984-.2.984-.594v-.041c0-.43-.615-.614-1.783-.942C2.274,35.815.533,35.077.533,32.844V32.8c0-2.356,1.885-3.668,4.446-3.668a8.672,8.672,0,0,1,4.569,1.291L8.216,32.885A7.5,7.5,0,0,0,4.938,31.86c-.594,0-.9.226-.9.533v.041c0,.43.636.635,1.8.984,2.192.614,3.934,1.373,3.934,3.524v.041c0,2.438-1.824,3.709-4.529,3.709A8.938,8.938,0,0,1,0,39.052Z"/><path class="cls-2" d="M19.586,36.614V29.361h3.893v6c0,1.209.636,1.865,1.578,1.865a1.637,1.637,0,0,0,1.619-1.865v-6h3.893V40.446H26.676V38.929a4.079,4.079,0,0,1-3.32,1.763C21,40.692,19.586,39.134,19.586,36.614Z"/><path class="cls-2" d="M31.919,34.954v-.041c0-3.606,2.254-5.8,4.876-5.8a4.237,4.237,0,0,1,3.4,1.6V25.488H44.09V40.446H40.2V38.97a4.107,4.107,0,0,1-3.381,1.722C34.193,40.692,31.919,38.5,31.919,34.954Zm8.339-.041v-.041a2.275,2.275,0,1,0-4.528,0v.041a2.277,2.277,0,1,0,4.528,0Z"/><path class="cls-2" d="M45.85,25.488h4.057v2.869H45.85Zm.082,3.873h3.893V40.446H45.932Z"/><path class="cls-2" d="M51.216,34.954v-.041a6.137,6.137,0,0,1,12.253-.041v.041a6.137,6.137,0,0,1-12.253.041Zm8.462,0v-.041a2.4,2.4,0,0,0-2.356-2.5,2.321,2.321,0,0,0-2.315,2.458v.041a2.4,2.4,0,0,0,2.356,2.5A2.321,2.321,0,0,0,59.678,34.954Z"/><path class="cls-2" d="M0,57.688l1.455-2.356A7.2,7.2,0,0,0,5.266,56.6c.676,0,.984-.2.984-.594v-.041c0-.431-.615-.615-1.783-.943C2.274,54.451.533,53.713.533,51.48v-.041c0-2.357,1.885-3.668,4.446-3.668a8.663,8.663,0,0,1,4.569,1.291L8.216,51.521A7.483,7.483,0,0,0,4.938,50.5c-.594,0-.9.225-.9.533v.041c0,.43.636.635,1.8.983,2.192.615,3.934,1.373,3.934,3.524v.041c0,2.439-1.824,3.709-4.529,3.709A8.945,8.945,0,0,1,0,57.688Z"/><path class="cls-2" d="M10.711,44.124h4.057v2.868H10.711ZM10.793,48h3.893V59.081H10.793Z"/><path class="cls-2" d="M16.286,48h3.893v1.516a4.069,4.069,0,0,1,3.3-1.762,3.4,3.4,0,0,1,3.2,1.8,4.663,4.663,0,0,1,3.709-1.8c2.356,0,3.79,1.475,3.79,4.057v7.274H30.28V53.057c0-1.209-.594-1.844-1.516-1.844s-1.6.635-1.6,1.844v6.024H23.273V53.057c0-1.209-.595-1.844-1.517-1.844s-1.577.635-1.577,1.844v6.024H16.286Z"/><path class="cls-2" d="M35.521,48h3.893v1.475a4.069,4.069,0,0,1,3.36-1.721c2.644,0,4.918,2.193,4.918,5.738v.04c0,3.607-2.274,5.8-4.9,5.8a4.163,4.163,0,0,1-3.381-1.6V62.36H35.521Zm8.339,5.553v-.041a2.275,2.275,0,1,0-4.528,0v.041a2.277,2.277,0,1,0,4.528,0Z"/><path class="cls-2" d="M60.717,59.081H56.824V57.729a4.163,4.163,0,0,1-3.381,1.6c-2.623,0-4.9-2.192-4.9-5.8v-.04c0-3.545,2.274-5.738,4.917-5.738a4.07,4.07,0,0,1,3.361,1.721V48h3.893Zm-6.065-3.012a2.344,2.344,0,0,0,2.254-2.52v-.041a2.276,2.276,0,1,0-4.529,0v.041A2.335,2.335,0,0,0,54.652,56.069Z"/><path class="cls-2" d="M71.369,44.124h4.057v2.868H71.369ZM71.451,48h3.893V59.081H71.451Z"/><polygon class="cls-2" points="18.147 29.364 18.147 32.496 16.17 32.496 16.17 40.448 12.279 40.448 12.279 32.496 10.307 32.496 10.307 29.364 12.279 29.364 12.279 26.551 16.17 26.551 16.17 29.364 18.147 29.364"/><polygon class="cls-2" points="69.978 47.998 69.978 51.13 68.001 51.13 68.001 59.081 64.11 59.081 64.11 51.13 62.138 51.13 62.138 47.998 64.11 47.998 64.11 45.184 68.001 45.184 68.001 47.998 69.978 47.998"/><path class="cls-1" d="M79.329,5.6,74.79,10.281a.734.734,0,0,1-1.062,0L69.189,5.6A3.368,3.368,0,0,1,69.422.718a3.206,3.206,0,0,1,4.376.32l.462.476.462-.476A3.208,3.208,0,0,1,79.1.718,3.367,3.367,0,0,1,79.329,5.6Z"/><path class="cls-2" d="M0,2.047H2.46L4.465,5.3l2-3.253H8.93v8.4H6.613V5.624L4.465,8.912H4.417L2.281,5.648v4.8H0Z"/><path class="cls-2" d="M10.242,8.588V8.564c0-1.344,1.019-2.04,2.544-2.04a4.979,4.979,0,0,1,1.56.252V6.668c0-.673-.42-1.057-1.3-1.057a4.577,4.577,0,0,0-1.789.36l-.468-1.608a6.53,6.53,0,0,1,2.629-.5,3.335,3.335,0,0,1,2.472.792,2.711,2.711,0,0,1,.7,2.065v3.732H14.334V9.777a2.448,2.448,0,0,1-1.908.816A1.971,1.971,0,0,1,10.242,8.588ZM14.37,8.1V7.8a2.389,2.389,0,0,0-.888-.168c-.66,0-1.045.324-1.045.8v.024a.716.716,0,0,0,.805.708A1.043,1.043,0,0,0,14.37,8.1Z"/><path class="cls-2" d="M17.731,7.232V7.208c0-2.113,1.32-3.4,2.857-3.4a2.481,2.481,0,0,1,1.992.936V1.687h2.281v8.761H22.58V9.584a2.407,2.407,0,0,1-1.98,1.009C19.064,10.593,17.731,9.308,17.731,7.232Zm4.885-.024V7.184a1.333,1.333,0,1,0-2.652,0v.024a1.334,1.334,0,1,0,2.652,0Z"/><path class="cls-2" d="M26.047,7.232V7.208a3.258,3.258,0,0,1,3.277-3.4c2.244,0,3.276,1.644,3.276,3.553,0,.144,0,.312-.011.468H28.244a1.34,1.34,0,0,0,1.4,1.068,1.963,1.963,0,0,0,1.441-.66l1.26,1.044a3.4,3.4,0,0,1-2.821,1.32A3.268,3.268,0,0,1,26.047,7.232Zm4.417-.564c-.084-.72-.5-1.176-1.128-1.176-.6,0-1.008.468-1.128,1.176Z"/><path class="cls-2" d="M36.675,3.955h2.232L39.76,7.22l1-3.289H42.64l1.009,3.313.876-3.289h2.2l-2,6.541H42.748L41.692,7.124,40.612,10.5H38.656Z"/><path class="cls-2" d="M47.562,1.687h2.377v1.68H47.562Zm.048,2.268h2.281v6.493H47.61Z"/><path class="cls-2" d="M51.727,8.432V5.792h-.768V3.955h.768V2.311h2.281V3.955H55.52V5.792H54.008v2.2c0,.456.2.648.624.648A2,2,0,0,0,55.5,8.42v1.789a3.263,3.263,0,0,1-1.584.371A1.9,1.9,0,0,1,51.727,8.432Z"/><path class="cls-2" d="M56.819,1.687H59.1V4.843a2.389,2.389,0,0,1,1.945-1.032A2.127,2.127,0,0,1,63.252,6.2v4.248H60.971V6.932c0-.708-.372-1.092-.912-1.092a.96.96,0,0,0-.96,1.092v3.516h-2.28Z"/><path class="cls-2" d="M87.549,9.656v.792H85.268V1.687h2.281V4.819a2.384,2.384,0,0,1,1.969-1.008c1.548,0,2.881,1.284,2.881,3.361V7.2c0,2.112-1.333,3.4-2.87,3.4A2.44,2.44,0,0,1,87.549,9.656Zm2.6-2.448V7.184a1.334,1.334,0,1,0-2.654,0v.024a1.335,1.335,0,1,0,2.654,0Z"/><path class="cls-2" d="M93.063,11.841l.708-1.6a2.191,2.191,0,0,0,1,.349.568.568,0,0,0,.527-.265L92.75,3.955h2.389l1.3,3.913,1.224-3.913H100l-2.377,6.338c-.564,1.512-1.176,2.112-2.472,2.112A4.2,4.2,0,0,1,93.063,11.841Z"/></g></g></svg>